<svg width="42" height="48" viewBox="0 0 42 48" fill="none" xmlns="http://www.w3.org/2000/svg">
<g clip-path="url(#clip0_40_400)">
<path d="M1.88991 3.53828H14.8241V2.42187V2.4168C14.8241 2.37969 14.8249 2.34414 14.8296 2.30781C14.8587 1.68594 15.1251 1.12148 15.5339 0.711719L15.5312 0.708984C15.9593 0.277734 16.5539 0.00976562 17.2085 0.00351562L17.2175 0.00429687V0H17.2295H24.9412H24.9474C24.9885 0 25.0276 0.00351562 25.0672 0.00859375C25.6811 0.0414062 26.2381 0.305469 26.6434 0.715625C27.0708 1.14687 27.336 1.74492 27.3426 2.40117L27.3415 2.40937H27.3469V2.42187V3.53789H40.1101H40.1167C40.1702 3.53789 40.2206 3.54336 40.2722 3.55117C40.7306 3.59258 41.1464 3.79531 41.4489 4.10195L41.4504 4.10469L41.4524 4.10195C41.7824 4.43672 41.9899 4.90195 41.9957 5.41758L41.995 5.43008H42.0004V5.44258V9.67266C42.0004 10.2477 41.5369 10.7137 40.966 10.7137H40.9389H1.03435C0.463461 10.7133 0 10.2473 0 9.67266V9.64805V5.44258V5.43711C0 5.3957 0.00155133 5.35469 0.006981 5.31406V5.30586C0.0414981 4.83437 0.248989 4.40586 0.55848 4.0957L0.555765 4.09492C0.890077 3.75859 1.35354 3.54961 1.86548 3.54258L1.87789 3.54336V3.53828H1.88991ZM30.1695 19.1785H27.8639V41.0898H30.1695V19.1785ZM22.6727 19.1785H20.3659V41.0898H22.6727V19.1785ZM15.1759 19.1785H12.8699V41.0898H15.1759V19.1785ZM4.20295 12.3316H38.0937L38.202 12.3387L38.2512 12.3414L38.3032 12.3457H38.3067L38.3699 12.3547C38.8985 12.4184 39.393 12.6629 39.7552 13.0219C40.1586 13.4223 40.4165 13.9652 40.4165 14.5703C40.4165 14.6086 40.413 14.6457 40.4091 14.682L40.4083 14.7086L40.4029 14.7687L37.5357 45.759L37.5329 45.7758H37.5357L37.5294 45.8301L37.5097 45.9406L37.5089 45.9426L37.5081 45.9496C37.4868 46.0789 37.4616 46.202 37.4271 46.3121L37.4243 46.3207L37.4236 46.3227L37.4201 46.3297L37.4112 46.3539L37.4096 46.3621C37.3638 46.5004 37.3072 46.6348 37.2421 46.7562C36.8507 47.4906 36.1255 48.0012 35.2238 48.0012H7.03141L6.93562 47.9957V47.9969L6.93135 47.9957L6.91894 47.9941C6.74054 47.9852 6.57416 47.9586 6.41941 47.9152C6.25846 47.8699 6.10217 47.8035 5.95518 47.7219L5.95169 47.7211L5.95091 47.7219C5.25863 47.3402 4.79711 46.5961 4.72148 45.7602L1.89263 14.7617L1.88836 14.7129L1.88409 14.6164L1.88254 14.5711H1.8806C1.8806 13.9645 2.13812 13.4203 2.54263 13.0199C2.92116 12.6469 3.44241 12.3953 3.99934 12.3457L4.04665 12.3441V12.3414L4.163 12.3363L4.20334 12.3371V12.3316H4.20295ZM38.0941 14.4152H4.20295V14.4125L4.15796 14.4141C4.09474 14.4227 4.03308 14.4555 3.98809 14.5008C3.96365 14.5254 3.94775 14.5523 3.94775 14.5707H3.94504L3.94775 14.6168L6.77195 45.5715H6.77118L6.77195 45.5762C6.78437 45.723 6.8503 45.8461 6.94532 45.8984L6.94454 45.9L6.97712 45.9125L7.00155 45.9172H7.03141H35.2249C35.3052 45.9172 35.3797 45.8559 35.4258 45.7699L35.4584 45.693L35.4794 45.6086L35.4848 45.5547H35.4867L38.3505 14.6133L38.3493 14.5703C38.3493 14.5527 38.3334 14.527 38.3094 14.5031C38.2628 14.457 38.1985 14.4242 38.1345 14.4145L38.0941 14.4152ZM15.8573 5.6207H2.06793V8.63086H39.9321V5.6207H26.3366H26.3122C25.7413 5.6207 25.279 5.15508 25.279 4.58008V2.42187V2.40937H25.2817C25.279 2.32344 25.2406 2.24023 25.1812 2.18086C25.1281 2.12578 25.0556 2.09141 24.9792 2.08242H24.9474H24.9412H17.2295H17.2175V2.08008C17.1349 2.08281 17.0538 2.1207 16.9941 2.18125L16.9925 2.17969L16.9898 2.18125C16.939 2.23359 16.9002 2.30352 16.8894 2.37695L16.8921 2.4168V2.42187V4.57969C16.8917 5.15469 16.4282 5.6207 15.8573 5.6207Z" fill="white"/>
</g>
<defs>
<clipPath id="clip0_40_400">
<rect width="42" height="48" fill="white"/>
</clipPath>
</defs>
</svg>
